<?xml version="1.0" encoding="UTF-8" standalone="no"?>
<!-- Created with Inkscape (http://www.inkscape.org/) -->

<svg
   width="100mm"
   height="100mm"
   viewBox="0 0 100 100"
   version="1.1"
   id="svg5"
   inkscape:version="1.2.1 (9c6d41e, 2022-07-14)"
   sodipodi:docname="logo.svg"
   xmlns:inkscape="http://www.inkscape.org/namespaces/inkscape"
   xmlns:sodipodi="http://sodipodi.sourceforge.net/DTD/sodipodi-0.dtd"
   xmlns:xlink="http://www.w3.org/1999/xlink"
   xmlns="http://www.w3.org/2000/svg"
   xmlns:svg="http://www.w3.org/2000/svg">
  <sodipodi:namedview
     id="namedview7"
     pagecolor="#ffffff"
     bordercolor="#000000"
     borderopacity="0.25"
     inkscape:showpageshadow="2"
     inkscape:pageopacity="0.0"
     inkscape:pagecheckerboard="0"
     inkscape:deskcolor="#d1d1d1"
     inkscape:document-units="mm"
     showgrid="false"
     inkscape:zoom="0.91338071"
     inkscape:cx="189.95365"
     inkscape:cy="244.69534"
     inkscape:window-width="1470"
     inkscape:window-height="849"
     inkscape:window-x="0"
     inkscape:window-y="37"
     inkscape:window-maximized="1"
     inkscape:current-layer="layer1" />
  <defs
     id="defs2">
    <rect
       x="215.96769"
       y="110.9834"
       width="344.9484"
       height="269.95962"
       id="rect1263" />
    <rect
       x="4.499327"
       y="2.9995513"
       width="413.93808"
       height="406.4392"
       id="rect1257" />
    <rect
       x="19.179628"
       y="46.883534"
       width="596.69953"
       height="481.62176"
       id="rect1090" />
    <linearGradient
       inkscape:collect="always"
       id="linearGradient985">
      <stop
         style="stop-color:#3322ff;stop-opacity:1;"
         offset="0"
         id="stop981" />
      <stop
         style="stop-color:#5515ff;stop-opacity:1;"
         offset="1"
         id="stop983" />
    </linearGradient>
    <linearGradient
       inkscape:collect="always"
       xlink:href="#linearGradient985"
       id="linearGradient987"
       x1="0"
       y1="50"
       x2="100"
       y2="50"
       gradientUnits="userSpaceOnUse"
       gradientTransform="matrix(0.9,0,0,0.9,5,5)" />
    <rect
       x="19.179628"
       y="46.883534"
       width="596.69953"
       height="481.62176"
       id="rect1198" />
  </defs>
  <g
     inkscape:label="Layer 1"
     inkscape:groupmode="layer"
     id="layer1">
    <rect
       style="opacity:0.839431;fill:url(#linearGradient987);fill-opacity:1;stroke-width:5.00041"
       id="rect294"
       width="90"
       height="90"
       x="5"
       y="5"
       ry="11.700509" />
    <g
       id="g1484"
       transform="matrix(0.83045356,0,0,0.83045356,7.2400505,8.5756546)">
      <g
         aria-label="L"
         transform="matrix(0.71515416,0,0,0.54482646,0.3262258,-8.7721527)"
         id="text1255"
         style="font-weight:bold;font-size:192px;font-family:Arial;-inkscape-font-specification:'Arial Bold';white-space:pre;shape-inside:url(#rect1257);opacity:0.839431;fill:#ffffff;stroke-width:20.9991">
        <path
           d="M 18.216947,177.88737 V 37.689834 H 35.248461 V 157.64504 h 84.158089 v 20.24233 z"
           id="path1267"
           sodipodi:nodetypes="ccccccc" />
      </g>
      <g
         aria-label="Q"
         transform="matrix(0.38494448,0,0,0.38494448,-54.257626,-41.754708)"
         id="text1261"
         style="font-weight:bold;font-size:192px;font-family:Arial;-inkscape-font-specification:'Arial Bold';white-space:pre;shape-inside:url(#rect1263);opacity:0.839431;fill:#ffffff;stroke-width:20.9991">
        <path
           d="m 351.55781,260.99309 c 6.8125,4.875 14.21875,8.75 22.21875,11.625 l -10.21875,19.59375 c -4.1875,-1.25 -8.28125,-2.96875 -12.28125,-5.15625 -0.875,-0.4375 -7.03125,-4.5 -18.46875,-12.1875 -9,3.9375 -18.96875,5.90625 -29.90625,5.90625 -21.125,0 -37.6875,-6.21875 -49.6875,-18.65625 -11.9375,-12.4375 -17.90625,-29.90625 -17.90625,-52.40625 0,-22.4375 6,-39.875 18,-52.3125 12,-12.5 28.28125,-18.75 48.84375,-18.75 20.375,0 36.53125,6.25 48.46875,18.75 11.9375,12.4375 17.90625,29.875 17.90625,52.3125 0,11.875 -1.65625,22.3125 -4.96875,31.3125 -2.5,6.875 -6.5,13.53125 -12,19.96875 z m -22.3125,-15.65625 c 3.5625,-4.1875 6.21875,-9.25 7.96875,-15.1875 1.8125,-5.9375 2.71875,-12.75 2.71875,-20.4375 0,-15.875 -3.5,-27.71875 -10.5,-35.53125 -7,-7.875 -16.15625,-11.8125 -27.46875,-11.8125 -11.3125,0 -20.5,3.9375 -27.5625,11.8125 -7,7.875 -10.5,19.71875 -10.5,35.53125 0,16.0625 3.5,28.09375 10.5,36.09375 7.0625,7.9375 15.96875,11.90625 26.71875,11.90625 4,0 7.78125,-0.65625 11.34375,-1.96875 -5.625,-3.6875 -11.34375,-6.5625 -17.15625,-8.625 l 7.78125,-15.84375 c 9.125,3.125 17.84375,7.8125 26.15625,14.0625 z"
           id="path1270"
           sodipodi:nodetypes="cccccscscscsccccscscscscccc" />
      </g>
    </g>
  </g>
</svg>
