<?xml version="1.0" encoding="UTF-8" standalone="no"?>
<!-- Created with Inkscape (http://www.inkscape.org/) -->

<svg
   width="450mm"
   height="100mm"
   viewBox="0 0 450 100"
   version="1.1"
   id="svg5"
   inkscape:version="1.2.1 (9c6d41e, 2022-07-14)"
   sodipodi:docname="logo-large.svg"
   xmlns:inkscape="http://www.inkscape.org/namespaces/inkscape"
   xmlns:sodipodi="http://sodipodi.sourceforge.net/DTD/sodipodi-0.dtd"
   xmlns="http://www.w3.org/2000/svg"
   xmlns:svg="http://www.w3.org/2000/svg">
  <sodipodi:namedview
     id="namedview7"
     pagecolor="#ffffff"
     bordercolor="#000000"
     borderopacity="0.25"
     inkscape:showpageshadow="2"
     inkscape:pageopacity="0.0"
     inkscape:pagecheckerboard="0"
     inkscape:deskcolor="#d1d1d1"
     inkscape:document-units="mm"
     showgrid="false"
     inkscape:zoom="0.8937669"
     inkscape:cx="483.90693"
     inkscape:cy="430.20166"
     inkscape:window-width="1390"
     inkscape:window-height="1205"
     inkscape:window-x="0"
     inkscape:window-y="25"
     inkscape:window-maximized="0"
     inkscape:current-layer="layer1" />
  <defs
     id="defs2">
    <rect
       x="458.73259"
       y="20.139479"
       width="1183.7538"
       height="371.46151"
       id="rect4383" />
    <rect
       x="15.850272"
       y="9.5101633"
       width="289.10895"
       height="214.92969"
       id="rect242" />
    <rect
       x="-7.6081309"
       y="28.530491"
       width="386.74664"
       height="255.50639"
       id="rect236" />
    <rect
       x="15.850272"
       y="9.5101633"
       width="289.10895"
       height="214.92969"
       id="rect564" />
  </defs>
  <g
     inkscape:label="Layer 1"
     inkscape:groupmode="layer"
     id="layer1">
    <g
       aria-label="L"
       transform="matrix(0.75305496,0,0,0.75305496,-0.3565004,-0.5442044)"
       id="text240"
       style="font-size:96px;font-family:AppleGothic;-inkscape-font-specification:AppleGothic;white-space:pre;shape-inside:url(#rect242);fill:#445500;stroke-width:20.9991">
      <path
         d="m 20.841609,16.587871 h 7.584 v 68.64 h 37.152 v 6.624 h -44.736 z"
         id="path1226"
         style="fill:#445500" />
    </g>
    <g
       aria-label="Q"
       transform="matrix(0.80899759,0,0,0.80899759,26.704873,8.9570085)"
       id="text562"
       style="font-size:96px;font-family:AppleGothic;-inkscape-font-specification:AppleGothic;white-space:pre;shape-inside:url(#rect564);fill:#000080;stroke-width:20.9991">
      <path
         d="m 55.689609,67.659871 8.832,14.784 q 6.624,-4.608 10.272,-11.904 3.648,-7.392 3.648,-16.128 0,-13.056 -7.488,-22.464 -3.744,-4.704 -8.16,-7.104 -4.416,-2.4 -9.792,-2.4 -10.368,0 -17.856,9.504 -7.296,9.312 -7.296,22.944 0,13.824 7.968,22.944 7.008,8.16 16.512,8.16 1.44,0 2.4,-0.096 1.056,-0.096 2.784,-0.576 l -10.368,-17.664 z m 9.792,31.68 -4.224,-7.488 q -3.36,0.768 -5.28,0.96 -1.824,0.288 -3.264,0.288 -13.056,0 -22.368,-9.888 -10.56,-11.04 -10.56,-28.704 0,-16.704 9.792,-27.936 9.792,-11.232 23.712,-11.232 13.248,0 23.04,10.464 10.56,11.232 10.56,28.608 0,11.616 -4.512,20.064 -4.512,8.448 -14.112,14.208 l 5.952,10.56 z"
         id="path1229"
         style="fill:#445500" />
    </g>
    <g
       aria-label="Organize, tag and share
your Moodle questions"
       transform="matrix(0.17996638,0,0,0.17996638,43.484464,26.123361)"
       id="text4381"
       style="font-size:96px;font-family:AppleGothic;-inkscape-font-specification:AppleGothic;white-space:pre;shape-inside:url(#rect4383);display:inline;fill:#333333;stroke-width:20.9991">
      <path
         d="m 496.17242,103.72878 q -13.056,0 -22.848,-10.176003 -10.752,-11.04 -10.752,-28.512 0,-16.704 10.08,-28.224 9.792,-10.848 23.232,-10.848 13.632,0 23.424,10.656 10.08,11.232 10.08,28.32 0,17.76 -10.944,28.8 -9.696,9.984003 -22.272,9.984003 z m -0.576,-7.104003 q 10.656,0 18.144,-8.928 7.584,-9.12 7.584,-22.752 0,-6.624 -1.824,-12.288 -1.824,-5.664 -5.472,-10.272 -7.296,-9.312 -18.048,-9.312 -10.656,0 -18.048,9.312 -7.296,9.12 -7.296,22.752 0,14.208 7.68,23.136 7.2,8.352 17.28,8.352 z"
         id="path6789" />
      <path
         d="m 565.10033,51.120777 v 6.912 q -1.056,-0.384 -1.728,-0.576 -0.672,-0.288 -1.152,-0.384 -0.48,-0.096 -1.056,-0.096 -0.48,-0.096 -1.344,-0.096 -7.008,0 -11.52,6.816 -3.84,6.24 -3.84,13.92 v 24.864003 h -6.912 V 51.120777 h 6.336 l 0.48,8.832 q 2.4,-4.032 4.512,-5.76 4.32,-3.552 10.368,-3.552 1.632,0 2.976,0.096 1.44,0.096 2.88,0.384 z"
         id="path6791" />
      <path
         d="m 609.35626,56.880777 1.92,-5.76 h 5.088 v 46.464 q 0,12.000003 -5.856,18.240003 -5.856,6.24 -18.144,6.24 -4.992,0 -9.504,-1.824 -4.416,-1.728 -9.312,-5.472 v -8.448 q 3.072,2.88 6.048,4.8 2.976,2.016 5.856,3.072 3.36,1.248 6.912,1.248 7.584,0 11.808,-3.456 5.184,-4.224 5.184,-13.536003 v -6.336 q -3.648,6.048 -9.024,8.544003 -3.648,1.728 -8.064,1.728 -9.504,0 -15.936,-7.584003 -6.336,-7.776 -6.336,-17.952 0,-10.176 5.952,-17.952 6.912,-8.928 17.664,-8.928 5.376,0 10.176,2.592 1.44,0.864 2.784,1.92 1.44,1.056 2.784,2.4 z m 0,20.736 v -14.112 q -1.632,-1.824 -3.36,-3.072 -1.632,-1.248 -3.264,-2.208 -1.92,-1.056 -3.936,-1.536 -2.016,-0.48 -4.128,-0.48 -7.2,0 -11.904,5.088 -5.28,5.76 -5.28,15.168 0,8.544 4.416,14.112 4.32,5.472 11.232,5.472 6.816,0 11.52,-5.28 4.704,-5.088 4.704,-13.152 z"
         id="path6793" />
      <path
         d="m 665.22811,69.264777 v 24.192 q 0,1.632 0.672,2.88 0.768,1.152 2.688,1.152 0.576,0 0.96,0 0.384,-0.096 0.768,-0.192 0.576,-0.192 0.96,-0.384 0.48,-0.192 0.768,-0.288 v 5.376003 q -1.728,0.576 -3.456,0.768 -1.728,0.288 -2.688,0.288 -4.896,0 -6.432,-2.592 -1.248,-1.632003 -1.248,-7.008003 -1.248,2.112 -2.496,3.744 -1.248,1.536 -2.496,2.592 -4.992,3.936003 -11.616,3.936003 -7.008,0 -12.192,-4.128003 -5.376,-4.416 -5.376,-11.232 0,-8.544 8.64,-12.576 3.168,-1.536 8.352,-2.688 5.28,-1.152 12.576,-2.112 l 4.608,-0.48 q 0,-6.72 -3.456,-10.464 -3.36,-3.84 -9.984,-3.84 -2.496,0 -4.992,0.672 -2.4,0.576 -4.896,1.92 -1.344,0.768 -2.976,1.824 -1.632,1.056 -3.552,2.688 v -7.872 q 8.16,-5.472 17.568,-5.472 9.6,0 14.784,6.048 4.512,5.28 4.512,13.248 z m -7.008,10.08 v -3.072 l -3.264,0.384 q -12,1.248 -16.896,3.36 -6.528,2.592 -6.528,8.448 0,1.728 0.768,3.36 0.768,1.536 2.112,2.784 1.344,1.248 3.264,2.016 2.016,0.768 4.416,0.768 6.528,0 11.424,-5.28 4.704,-5.376 4.704,-12.768 z"
         id="path6795" />
      <path
         d="m 724.17198,68.112777 v 34.368003 h -6.912 V 68.592777 q 0,-5.376 -3.936,-8.832 -3.936,-3.552 -9.408,-3.552 -7.296,0 -12.576,6.048 -5.28,6.144 -5.28,13.824 v 26.400003 h -6.528 V 51.120777 h 6.048 l 0.288,9.6 q 2.592,-3.936 6.048,-6.528 5.664,-4.224 12.768,-4.224 8.256,0 13.824,4.992 5.664,4.896 5.664,13.152 z"
         id="path6797" />
      <path
         d="m 732.71579,51.120777 h 6.912 v 51.360003 h -6.912 z m 3.36,-21.696 q 2.016,0 3.36,1.344 1.344,1.344 1.344,3.84 0,2.496 -1.248,3.84 -1.248,1.344 -3.456,1.344 -2.208,0 -3.456,-1.536 -1.152,-1.536 -1.152,-3.552 0,-3.168 1.44,-4.224 1.44,-1.056 3.168,-1.056 z"
         id="path6799" />
      <path
         d="m 749.13165,57.648777 v -6.528 h 40.896 v 5.76 l -34.464,39.936 q 1.92,0 6.24,-0.288 2.112,-0.096 3.744,-0.096 1.728,-0.096 3.072,-0.096 h 22.752 v 6.144003 h -44.064 v -5.664003 l 34.272,-39.936 q -2.496,0.192 -4.992,0.288 -2.496,0.096 -5.184,0.288 -2.688,0.096 -4.8,0.192 -2.016,0 -3.552,0 z"
         id="path6801" />
      <path
         d="m 844.07556,74.736777 h -39.072 q 0,11.04 5.088,16.896 5.184,5.76 13.536,5.76 6.336,0 12.192,-4.032 1.632,-1.056 3.456,-2.592 1.824,-1.632 3.936,-3.744 v 8.352 q -2.304,1.728 -4.32,3.072 -1.92,1.248 -3.648,2.112003 -6.048,3.168 -12.096,3.168 -10.464,0 -17.76,-7.200003 -7.872,-7.584 -7.872,-19.68 0,-11.424 7.104,-19.104 7.2,-7.776 17.76,-7.776 10.272,0 16.32,7.488 5.376,6.816 5.376,17.28 z m -38.112,-5.856 h 30.048 q -1.152,-6.528 -4.992,-9.696 -3.744,-3.264 -9.12,-3.264 -5.952,0 -10.08,3.744 -3.84,3.456 -5.856,9.216 z"
         id="path6803" />
      <path
         d="m 859.43554,116.59278 h -3.84 q 1.728,-3.648 2.592,-6.624 0.864,-2.88 1.248,-6.528 -2.112,-0.96 -3.072,-2.112 -1.152,-1.248 -1.152,-4.032003 0,-3.456 1.536,-5.568 1.632,-2.208 3.84,-2.208 2.208,0 3.456,2.496 1.248,2.4 1.248,5.568 0,2.784003 -0.576,5.568003 -0.48,2.88 -1.536,5.76 -0.672,1.632 -1.632,3.456 -0.864,1.92 -2.112,4.224 z"
         id="path6805" />
      <path
         d="m 915.59542,35.952777 h 6.336 v 15.072 h 13.536 v 6.24 h -13.536 v 32.64 q 0,4.032 1.44,5.76 1.536,1.728 5.184,1.728 2.112,0 3.552,-0.48 1.536,-0.48 3.36,-1.248 v 6.240003 q -1.536,0.48 -3.744,0.864 -2.112,0.48 -4.32,0.48 -5.76,0 -8.928,-2.592 -3.552,-2.688003 -3.552,-8.640003 v -34.752 h -8.64 v -6.24 h 8.64 z"
         id="path6807" />
      <path
         d="m 982.31533,69.264777 v 24.192 q 0,1.632 0.672,2.88 0.768,1.152 2.688,1.152 0.576,0 0.96,0 0.384,-0.096 0.768,-0.192 0.576,-0.192 0.96,-0.384 0.48,-0.192 0.768,-0.288 v 5.376003 q -1.728,0.576 -3.456,0.768 -1.728,0.288 -2.688,0.288 -4.896,0 -6.432,-2.592 -1.248,-1.632003 -1.248,-7.008003 -1.248,2.112 -2.496,3.744 -1.248,1.536 -2.496,2.592 -4.992,3.936003 -11.616,3.936003 -7.008,0 -12.192,-4.128003 -5.376,-4.416 -5.376,-11.232 0,-8.544 8.64,-12.576 3.168,-1.536 8.352,-2.688 5.28,-1.152 12.576,-2.112 l 4.608,-0.48 q 0,-6.72 -3.456,-10.464 -3.36,-3.84 -9.984,-3.84 -2.496,0 -4.992,0.672 -2.4,0.576 -4.896,1.92 -1.344,0.768 -2.976,1.824 -1.632,1.056 -3.552,2.688 v -7.872 q 8.16,-5.472 17.568,-5.472 9.6,0 14.784,6.048 4.512,5.28 4.512,13.248 z m -7.008,10.08 v -3.072 l -3.264,0.384 q -12,1.248 -16.896,3.36 -6.528,2.592 -6.528,8.448 0,1.728 0.768,3.36 0.768,1.536 2.112,2.784 1.344,1.248 3.264,2.016 2.016,0.768 4.416,0.768 6.528,0 11.424,-5.28 4.704,-5.376 4.704,-12.768 z"
         id="path6809" />
      <path
         d="m 1034.6352,56.880777 1.92,-5.76 h 5.088 v 46.464 q 0,12.000003 -5.856,18.240003 -5.856,6.24 -18.144,6.24 -4.992,0 -9.504,-1.824 -4.416,-1.728 -9.31201,-5.472 v -8.448 q 3.07201,2.88 6.04801,4.8 2.976,2.016 5.856,3.072 3.36,1.248 6.912,1.248 7.584,0 11.808,-3.456 5.184,-4.224 5.184,-13.536003 v -6.336 q -3.648,6.048 -9.024,8.544003 -3.648,1.728 -8.064,1.728 -9.504,0 -15.936,-7.584003 -6.33601,-7.776 -6.33601,-17.952 0,-10.176 5.95201,-17.952 6.912,-8.928 17.664,-8.928 5.376,0 10.176,2.592 1.44,0.864 2.784,1.92 1.44,1.056 2.784,2.4 z m 0,20.736 v -14.112 q -1.632,-1.824 -3.36,-3.072 -1.632,-1.248 -3.264,-2.208 -1.92,-1.056 -3.936,-1.536 -2.016,-0.48 -4.128,-0.48 -7.2,0 -11.904,5.088 -5.28,5.76 -5.28,15.168 0,8.544 4.416,14.112 4.32,5.472 11.232,5.472 6.816,0 11.52,-5.28 4.704,-5.088 4.704,-13.152 z"
         id="path6811" />
      <path
         d="m 1121.227,69.264777 v 24.192 q 0,1.632 0.672,2.88 0.768,1.152 2.688,1.152 0.576,0 0.96,0 0.384,-0.096 0.768,-0.192 0.576,-0.192 0.96,-0.384 0.48,-0.192 0.768,-0.288 v 5.376003 q -1.728,0.576 -3.456,0.768 -1.728,0.288 -2.688,0.288 -4.896,0 -6.432,-2.592 -1.248,-1.632003 -1.248,-7.008003 -1.248,2.112 -2.496,3.744 -1.248,1.536 -2.496,2.592 -4.992,3.936003 -11.616,3.936003 -7.008,0 -12.192,-4.128003 -5.376,-4.416 -5.376,-11.232 0,-8.544 8.64,-12.576 3.168,-1.536 8.352,-2.688 5.28,-1.152 12.576,-2.112 l 4.608,-0.48 q 0,-6.72 -3.456,-10.464 -3.36,-3.84 -9.984,-3.84 -2.496,0 -4.992,0.672 -2.4,0.576 -4.896,1.92 -1.344,0.768 -2.976,1.824 -1.632,1.056 -3.552,2.688 v -7.872 q 8.16,-5.472 17.568,-5.472 9.6,0 14.784,6.048 4.512,5.28 4.512,13.248 z m -7.008,10.08 v -3.072 l -3.264,0.384 q -12,1.248 -16.896,3.36 -6.528,2.592 -6.528,8.448 0,1.728 0.768,3.36 0.768,1.536 2.112,2.784 1.344,1.248 3.264,2.016 2.016,0.768 4.416,0.768 6.528,0 11.424,-5.28 4.704,-5.376 4.704,-12.768 z"
         id="path6813" />
      <path
         d="m 1180.1709,68.112777 v 34.368003 h -6.912 V 68.592777 q 0,-5.376 -3.936,-8.832 -3.936,-3.552 -9.408,-3.552 -7.296,0 -12.576,6.048 -5.28,6.144 -5.28,13.824 v 26.400003 h -6.528 V 51.120777 h 6.048 l 0.288,9.6 q 2.592,-3.936 6.048,-6.528 5.664,-4.224 12.768,-4.224 8.256,0 13.824,4.992 5.664,4.896 5.664,13.152 z"
         id="path6815" />
      <path
         d="m 1225.0987,27.216777 h 7.392 v 75.264003 h -6.624 l -0.672,-8.352003 q -1.344,1.92 -2.688,3.456 -1.344,1.44 -2.688,2.496003 -4.8,3.648 -11.136,3.648 -9.888,0 -16.416,-7.680003 -6.432,-7.68 -6.432,-18.624 0,-11.328 6.816,-19.296 6.912,-8.16 17.28,-8.16 4.32,0 8.064,1.536 1.344,0.576 3.072,1.536 1.824,0.96 4.032,2.304 z m 0,50.4 v -14.784 q -4.512,-3.936 -7.872,-5.28 -3.36,-1.344 -6.528,-1.344 -7.872,0 -12.768,6.624 -4.608,6.24 -4.608,14.496 0,8.832 5.088,14.688 4.704,5.376 11.136,5.376 6.336,0 10.944,-5.568 4.608,-5.568 4.608,-14.208 z"
         id="path6817" />
      <path
         d="m 1270.7946,98.064777 v -8.352 q 5.952,4.8 12.096,6.72 1.824,0.48 3.552,0.768 1.728,0.192 3.552,0.192 5.856,0 9.696,-2.688 3.936,-2.88 3.936,-6.432 0,-1.92 -1.44,-3.936 -2.016,-2.496 -10.752,-4.512 -10.368,-2.592 -13.824,-4.32 -6.72,-3.84 -6.72,-10.752 0,-6.432 5.568,-10.56 5.664,-4.224 14.112,-4.224 3.84,0 6.912,0.672 3.072,0.672 5.76,1.824 2.688,1.056 4.992,2.688 v 8.352 q -4.032,-3.36 -8.448,-5.28 -4.416,-2.016 -9.312,-2.016 -4.896,0 -8.448,2.208 -3.648,2.208 -3.648,5.76 0,4.704 8.64,7.488 4.032,1.152 7.968,2.304 3.936,1.152 7.968,2.304 8.736,3.744 8.736,11.328 0,6.432 -6.048,11.328 -6.144,4.800003 -15.264,4.800003 -4.032,0 -7.872,-0.864 -6.144,-1.344 -11.712,-4.800003 z"
         id="path6819" />
      <path
         d="m 1319.3704,27.216777 h 6.912 v 33.12 q 2.4,-3.84 5.856,-6.432 5.28,-3.936 11.808,-3.936 4.032,0 7.2,1.152 3.264,1.152 5.952,3.36 5.664,4.992 5.664,14.016 v 33.984003 h -7.008 V 69.456777 q 0,-5.568 -3.552,-9.408 -3.552,-3.84 -8.64,-3.84 -7.392,0 -12.288,5.856 -4.992,6.048 -4.992,13.824 v 26.592003 h -6.912 z"
         id="path6821" />
      <path
         d="m 1409.4184,69.264777 v 24.192 q 0,1.632 0.672,2.88 0.768,1.152 2.688,1.152 0.576,0 0.96,0 0.384,-0.096 0.768,-0.192 0.576,-0.192 0.96,-0.384 0.48,-0.192 0.768,-0.288 v 5.376003 q -1.728,0.576 -3.456,0.768 -1.728,0.288 -2.688,0.288 -4.896,0 -6.432,-2.592 -1.248,-1.632003 -1.248,-7.008003 -1.248,2.112 -2.496,3.744 -1.248,1.536 -2.496,2.592 -4.992,3.936003 -11.616,3.936003 -7.008,0 -12.192,-4.128003 -5.376,-4.416 -5.376,-11.232 0,-8.544 8.64,-12.576 3.168,-1.536 8.352,-2.688 5.28,-1.152 12.576,-2.112 l 4.608,-0.48 q 0,-6.72 -3.456,-10.464 -3.36,-3.84 -9.984,-3.84 -2.496,0 -4.992,0.672 -2.4,0.576 -4.896,1.92 -1.344,0.768 -2.976,1.824 -1.632,1.056 -3.552,2.688 v -7.872 q 8.16,-5.472 17.568,-5.472 9.6,0 14.784,6.048 4.512,5.28 4.512,13.248 z m -7.008,10.08 v -3.072 l -3.264,0.384 q -12,1.248 -16.896,3.36 -6.528,2.592 -6.528,8.448 0,1.728 0.768,3.36 0.768,1.536 2.112,2.784 1.344,1.248 3.264,2.016 2.016,0.768 4.416,0.768 6.528,0 11.424,-5.28 4.704,-5.376 4.704,-12.768 z"
         id="path6823" />
      <path
         d="m 1451.2742,51.120777 v 6.912 q -1.056,-0.384 -1.728,-0.576 -0.672,-0.288 -1.152,-0.384 -0.48,-0.096 -1.056,-0.096 -0.48,-0.096 -1.344,-0.096 -7.008,0 -11.52,6.816 -3.84,6.24 -3.84,13.92 v 24.864003 h -6.912 V 51.120777 h 6.336 l 0.48,8.832 q 2.4,-4.032 4.512,-5.76 4.32,-3.552 10.368,-3.552 1.632,0 2.976,0.096 1.44,0.096 2.88,0.384 z"
         id="path6825" />
      <path
         d="m 1502.6342,74.736777 h -39.072 q 0,11.04 5.088,16.896 5.184,5.76 13.536,5.76 6.336,0 12.192,-4.032 1.632,-1.056 3.456,-2.592 1.824,-1.632 3.936,-3.744 v 8.352 q -2.304,1.728 -4.32,3.072 -1.92,1.248 -3.648,2.112003 -6.048,3.168 -12.096,3.168 -10.464,0 -17.76,-7.200003 -7.872,-7.584 -7.872,-19.68 0,-11.424 7.104,-19.104 7.2,-7.776 17.76,-7.776 10.272,0 16.32,7.488 5.376,6.816 5.376,17.28 z m -38.112,-5.856 h 30.048 q -1.152,-6.528 -4.992,-9.696 -3.744,-3.264 -9.12,-3.264 -5.952,0 -10.08,3.744 -3.84,3.456 -5.856,9.216 z"
         id="path6827" />
      <path
         d="m 461.42042,171.12078 h 7.68 l 17.664,43.392 15.072,-43.392 h 7.584 l -21.408,57.312 q -2.304,6.144 -5.952,8.736 -3.264,2.208 -7.776,2.208 -2.304,0 -3.84,-0.384 -1.536,-0.288 -2.976,-0.864 v -6.624 q 1.344,0.672 2.976,1.152 1.728,0.48 3.072,0.48 3.36,0 5.184,-1.728 1.92,-1.728 3.36,-5.472 l 1.152,-3.936 z"
         id="path6829" />
      <path
         d="m 540.52435,223.72878 q -9.888,0 -17.376,-7.2 -7.968,-7.584 -7.968,-19.68 0,-11.424 7.008,-19.104 7.2,-7.776 17.76,-7.776 10.464,0 17.664,7.776 7.104,7.68 7.104,19.008 0,11.904 -7.68,19.68 -7.104,7.296 -16.512,7.296 z m -0.672,-6.336 q 6.912,0 12.288,-5.76 5.184,-5.856 5.184,-14.88 0,-9.312 -5.568,-15.168 -5.088,-5.376 -11.808,-5.376 -6.912,0 -11.808,5.568 -5.376,6.144 -5.376,15.072 0,9.024 5.28,15.072 4.896,5.472 11.808,5.472 z"
         id="path6831" />
      <path
         d="m 572.10818,171.12078 h 7.008 v 32.736 q 0,5.472 3.168,9.216 3.456,4.32 9.792,4.32 7.296,0 12.48,-5.856 5.376,-6.144 5.376,-13.536 v -26.88 h 6.912 v 51.36 h -6.048 l -0.48,-8.736 q -1.536,2.112 -3.264,3.84 -1.728,1.632 -3.744,2.88 -5.376,3.264 -11.808,3.264 -8.832,0 -14.112,-5.472 -5.28,-5.568 -5.28,-13.536 z"
         id="path6833" />
      <path
         d="m 653.32403,171.12078 v 6.912 q -1.056,-0.384 -1.728,-0.576 -0.672,-0.288 -1.152,-0.384 -0.48,-0.096 -1.056,-0.096 -0.48,-0.096 -1.344,-0.096 -7.008,0 -11.52,6.816 -3.84,6.24 -3.84,13.92 v 24.864 h -6.912 v -51.36 h 6.336 l 0.48,8.832 q 2.4,-4.032 4.512,-5.76 4.32,-3.552 10.368,-3.552 1.632,0 2.976,0.096 1.44,0.096 2.88,0.384 z"
         id="path6835" />
      <path
         d="m 690.28393,222.48078 v -75.264 h 9.888 l 29.184,62.304 30.144,-62.304 h 9.312 v 75.264 h -6.816 v -65.376 l -31.008,65.376 h -3.264 l -30.528,-65.28 v 65.28 z"
         id="path6837" />
      <path
         d="m 801.73986,223.72878 q -9.888,0 -17.376,-7.2 -7.968,-7.584 -7.968,-19.68 0,-11.424 7.008,-19.104 7.2,-7.776 17.76,-7.776 10.464,0 17.664,7.776 7.104,7.68 7.104,19.008 0,11.904 -7.68,19.68 -7.104,7.296 -16.512,7.296 z m -0.672,-6.336 q 6.912,0 12.288,-5.76 5.184,-5.856 5.184,-14.88 0,-9.312 -5.568,-15.168 -5.088,-5.376 -11.808,-5.376 -6.912,0 -11.808,5.568 -5.376,6.144 -5.376,15.072 0,9.024 5.28,15.072 4.896,5.472 11.808,5.472 z"
         id="path6839" />
      <path
         d="m 857.7077,223.72878 q -9.888,0 -17.376,-7.2 -7.968,-7.584 -7.968,-19.68 0,-11.424 7.008,-19.104 7.2,-7.776 17.76,-7.776 10.464,0 17.664,7.776 7.104,7.68 7.104,19.008 0,11.904 -7.68,19.68 -7.104,7.296 -16.512,7.296 z m -0.672,-6.336 q 6.912,0 12.288,-5.76 5.184,-5.856 5.184,-14.88 0,-9.312 -5.568,-15.168 -5.088,-5.376 -11.808,-5.376 -6.912,0 -11.808,5.568 -5.376,6.144 -5.376,15.072 0,9.024 5.28,15.072 4.896,5.472 11.808,5.472 z"
         id="path6841" />
      <path
         d="m 925.57953,147.21678 h 7.392 v 75.264 h -6.624 l -0.672,-8.352 q -1.344,1.92 -2.688,3.456 -1.344,1.44 -2.688,2.496 -4.8,3.648 -11.136,3.648 -9.888,0 -16.416,-7.68 -6.432,-7.68 -6.432,-18.624 0,-11.328 6.816,-19.296 6.912,-8.16 17.28,-8.16 4.32,0 8.064,1.536 1.344,0.576 3.072,1.536 1.824,0.96 4.032,2.304 z m 0,50.4 v -14.784 q -4.512,-3.936 -7.872,-5.28 -3.36,-1.344 -6.528,-1.344 -7.872,0 -12.768,6.624 -4.608,6.24 -4.608,14.496 0,8.832 5.088,14.688 4.704,5.376 11.136,5.376 6.336,0 10.944,-5.568 4.608,-5.568 4.608,-14.208 z"
         id="path6843" />
      <path
         d="m 941.51543,147.21678 h 6.912 v 75.264 h -6.912 z"
         id="path6845" />
      <path
         d="m 1002.6674,194.73678 h -39.07198 q 0,11.04 5.088,16.896 5.184,5.76 13.536,5.76 6.336,0 12.192,-4.032 1.632,-1.056 3.456,-2.592 1.824,-1.632 3.93598,-3.744 v 8.352 q -2.30398,1.728 -4.31998,3.072 -1.92,1.248 -3.648,2.112 -6.048,3.168 -12.096,3.168 -10.464,0 -17.76,-7.2 -7.872,-7.584 -7.872,-19.68 0,-11.424 7.104,-19.104 7.2,-7.776 17.76,-7.776 10.272,0 16.32,7.488 5.37598,6.816 5.37598,17.28 z m -38.11198,-5.856 h 30.048 q -1.152,-6.528 -4.992,-9.696 -3.744,-3.264 -9.12,-3.264 -5.952,0 -10.08,3.744 -3.84,3.456 -5.856,9.216 z"
         id="path6847" />
      <path
         d="m 1077.5474,176.30478 1.632,-5.184 h 5.28 v 67.872 h -6.912 v -25.248 q -6.24,9.984 -16.704,9.984 -9.216,0 -15.936,-7.296 -7.008,-7.68 -7.008,-19.008 0,-11.136 6.72,-19.296 6.912,-8.16 17.376,-8.16 5.568,0 10.08,2.4 2.688,1.152 5.472,3.936 z m 0,20.832 v -13.248 q -3.072,-3.648 -7.008,-5.664 -3.936,-2.016 -7.68,-2.016 -7.584,0 -12.48,6.144 -4.992,6.336 -4.992,14.976 0,9.216 5.472,15.072 4.704,4.992 10.752,4.992 5.76,0 10.464,-4.8 5.472,-5.76 5.472,-15.456 z"
         id="path6849" />
      <path
         d="m 1093.0993,171.12078 h 7.008 v 32.736 q 0,5.472 3.168,9.216 3.456,4.32 9.792,4.32 7.296,0 12.48,-5.856 5.376,-6.144 5.376,-13.536 v -26.88 h 6.912 v 51.36 h -6.048 l -0.48,-8.736 q -1.536,2.112 -3.264,3.84 -1.728,1.632 -3.744,2.88 -5.376,3.264 -11.808,3.264 -8.832,0 -14.112,-5.472 -5.28,-5.568 -5.28,-13.536 z"
         id="path6851" />
      <path
         d="m 1191.8831,194.73678 h -39.072 q 0,11.04 5.088,16.896 5.184,5.76 13.536,5.76 6.336,0 12.192,-4.032 1.632,-1.056 3.456,-2.592 1.824,-1.632 3.936,-3.744 v 8.352 q -2.304,1.728 -4.32,3.072 -1.92,1.248 -3.648,2.112 -6.048,3.168 -12.096,3.168 -10.464,0 -17.76,-7.2 -7.872,-7.584 -7.872,-19.68 0,-11.424 7.104,-19.104 7.2,-7.776 17.76,-7.776 10.272,0 16.32,7.488 5.376,6.816 5.376,17.28 z m -38.112,-5.856 h 30.048 q -1.152,-6.528 -4.992,-9.696 -3.744,-3.264 -9.12,-3.264 -5.952,0 -10.08,3.744 -3.84,3.456 -5.856,9.216 z"
         id="path6853" />
      <path
         d="m 1198.5071,218.06478 v -8.352 q 5.952,4.8 12.096,6.72 1.824,0.48 3.552,0.768 1.728,0.192 3.552,0.192 5.856,0 9.696,-2.688 3.936,-2.88 3.936,-6.432 0,-1.92 -1.44,-3.936 -2.016,-2.496 -10.752,-4.512 -10.368,-2.592 -13.824,-4.32 -6.72,-3.84 -6.72,-10.752 0,-6.432 5.568,-10.56 5.664,-4.224 14.112,-4.224 3.84,0 6.912,0.672 3.072,0.672 5.76,1.824 2.688,1.056 4.992,2.688 v 8.352 q -4.032,-3.36 -8.448,-5.28 -4.416,-2.016 -9.312,-2.016 -4.896,0 -8.448,2.208 -3.648,2.208 -3.648,5.76 0,4.704 8.64,7.488 4.032,1.152 7.968,2.304 3.936,1.152 7.968,2.304 8.736,3.744 8.736,11.328 0,6.432 -6.048,11.328 -6.144,4.8 -15.264,4.8 -4.032,0 -7.872,-0.864 -6.144,-1.344 -11.712,-4.8 z"
         id="path6855" />
      <path
         d="m 1253.1309,155.95278 h 6.336 v 15.072 h 13.536 v 6.24 h -13.536 v 32.64 q 0,4.032 1.44,5.76 1.536,1.728 5.184,1.728 2.112,0 3.552,-0.48 1.536,-0.48 3.36,-1.248 v 6.24 q -1.536,0.48 -3.744,0.864 -2.112,0.48 -4.32,0.48 -5.76,0 -8.928,-2.592 -3.552,-2.688 -3.552,-8.64 v -34.752 h -8.64 v -6.24 h 8.64 z"
         id="path6857" />
      <path
         d="m 1279.4348,171.12078 h 6.912 v 51.36 h -6.912 z m 3.36,-21.696 q 2.016,0 3.36,1.344 1.344,1.344 1.344,3.84 0,2.496 -1.248,3.84 -1.248,1.344 -3.456,1.344 -2.208,0 -3.456,-1.536 -1.152,-1.536 -1.152,-3.552 0,-3.168 1.44,-4.224 1.44,-1.056 3.168,-1.056 z"
         id="path6859" />
      <path
         d="m 1319.1787,223.72878 q -9.888,0 -17.376,-7.2 -7.968,-7.584 -7.968,-19.68 0,-11.424 7.008,-19.104 7.2,-7.776 17.76,-7.776 10.464,0 17.664,7.776 7.104,7.68 7.104,19.008 0,11.904 -7.68,19.68 -7.104,7.296 -16.512,7.296 z m -0.672,-6.336 q 6.912,0 12.288,-5.76 5.184,-5.856 5.184,-14.88 0,-9.312 -5.568,-15.168 -5.088,-5.376 -11.808,-5.376 -6.912,0 -11.808,5.568 -5.376,6.144 -5.376,15.072 0,9.024 5.28,15.072 4.896,5.472 11.808,5.472 z"
         id="path6861" />
      <path
         d="m 1395.7865,188.11278 v 34.368 h -6.912 v -33.888 q 0,-5.376 -3.936,-8.832 -3.936,-3.552 -9.408,-3.552 -7.296,0 -12.576,6.048 -5.28,6.144 -5.28,13.824 v 26.4 h -6.528 v -51.36 h 6.048 l 0.288,9.6 q 2.592,-3.936 6.048,-6.528 5.664,-4.224 12.768,-4.224 8.256,0 13.824,4.992 5.664,4.896 5.664,13.152 z"
         id="path6863" />
      <path
         d="m 1403.8504,218.06478 v -8.352 q 5.952,4.8 12.096,6.72 1.824,0.48 3.552,0.768 1.728,0.192 3.552,0.192 5.856,0 9.696,-2.688 3.936,-2.88 3.936,-6.432 0,-1.92 -1.44,-3.936 -2.016,-2.496 -10.752,-4.512 -10.368,-2.592 -13.824,-4.32 -6.72,-3.84 -6.72,-10.752 0,-6.432 5.568,-10.56 5.664,-4.224 14.112,-4.224 3.84,0 6.912,0.672 3.072,0.672 5.76,1.824 2.688,1.056 4.992,2.688 v 8.352 q -4.032,-3.36 -8.448,-5.28 -4.416,-2.016 -9.312,-2.016 -4.896,0 -8.448,2.208 -3.648,2.208 -3.648,5.76 0,4.704 8.64,7.488 4.032,1.152 7.968,2.304 3.936,1.152 7.968,2.304 8.736,3.744 8.736,11.328 0,6.432 -6.048,11.328 -6.144,4.8 -15.264,4.8 -4.032,0 -7.872,-0.864 -6.144,-1.344 -11.712,-4.8 z"
         id="path6865" />
    </g>
  </g>
</svg>
