<?xml version="1.0" encoding="UTF-8" standalone="no"?>
<!-- Created with Inkscape (http://www.inkscape.org/) -->

<svg
   width="450mm"
   height="100mm"
   viewBox="0 0 450 100"
   version="1.1"
   id="svg5"
   inkscape:version="1.2.1 (9c6d41e, 2022-07-14)"
   sodipodi:docname="logo-large.svg"
   xmlns:inkscape="http://www.inkscape.org/namespaces/inkscape"
   xmlns:sodipodi="http://sodipodi.sourceforge.net/DTD/sodipodi-0.dtd"
   xmlns:xlink="http://www.w3.org/1999/xlink"
   xmlns="http://www.w3.org/2000/svg"
   xmlns:svg="http://www.w3.org/2000/svg">
  <sodipodi:namedview
     id="namedview7"
     pagecolor="#ffffff"
     bordercolor="#000000"
     borderopacity="0.25"
     inkscape:showpageshadow="2"
     inkscape:pageopacity="0.0"
     inkscape:pagecheckerboard="0"
     inkscape:deskcolor="#d1d1d1"
     inkscape:document-units="mm"
     showgrid="false"
     inkscape:zoom="0.39258989"
     inkscape:cx="235.61483"
     inkscape:cy="332.40795"
     inkscape:window-width="1390"
     inkscape:window-height="849"
     inkscape:window-x="0"
     inkscape:window-y="37"
     inkscape:window-maximized="0"
     inkscape:current-layer="layer1" />
  <defs
     id="defs2">
    <rect
       x="430.34949"
       y="17.213979"
       width="1354.1664"
       height="395.92153"
       id="rect1877" />
    <rect
       x="458.73259"
       y="20.139479"
       width="1183.7538"
       height="371.46151"
       id="rect4383" />
    <rect
       x="15.850272"
       y="9.5101633"
       width="289.10895"
       height="214.92969"
       id="rect242" />
    <rect
       x="-7.6081309"
       y="28.530491"
       width="386.74664"
       height="255.50639"
       id="rect236" />
    <rect
       x="15.850272"
       y="9.5101633"
       width="289.10895"
       height="214.92969"
       id="rect564" />
    <linearGradient
       inkscape:collect="always"
       xlink:href="#linearGradient985"
       id="linearGradient987"
       x1="0"
       y1="50"
       x2="100"
       y2="50"
       gradientUnits="userSpaceOnUse"
       gradientTransform="matrix(0.9,0,0,0.9,67.548533,147.74779)" />
    <linearGradient
       inkscape:collect="always"
       id="linearGradient985">
      <stop
         style="stop-color:#3322ff;stop-opacity:1;"
         offset="0"
         id="stop981" />
      <stop
         style="stop-color:#5515ff;stop-opacity:1;"
         offset="1"
         id="stop983" />
    </linearGradient>
  </defs>
  <g
     inkscape:label="Layer 1"
     inkscape:groupmode="layer"
     id="layer1">
    <g
       aria-label="Organize, tag and share your Moodle questions"
       transform="matrix(0.17996638,0,0,0.17996638,43.484464,26.123361)"
       id="text4381"
       style="font-size:96px;font-family:AppleGothic;-inkscape-font-specification:AppleGothic;white-space:pre;shape-inside:url(#rect4383);display:inline;fill:#333333;stroke-width:20.9991">
      <g
         aria-label="Organize, Tag and Share Your Moodle Questions"
         transform="matrix(1.6680508,0,0,1.6680508,-215.09387,-65.331829)"
         id="text1875"
         style="font-weight:bold;font-size:85.3333px;font-family:Arial;-inkscape-font-specification:'Arial Bold';shape-inside:url(#rect1877);opacity:0.839431;fill:#3721ff;fill-opacity:1">
        <path
           d="m 434.47461,64.329201 q 0,-15.208327 8.16666,-23.791656 8.16666,-8.624997 21.08333,-8.624997 8.45833,0 15.24999,4.041665 6.79166,4.041665 10.33333,11.291662 3.58333,7.208331 3.58333,16.374993 0,9.291663 -3.75,16.624994 -3.75,7.33333 -10.62499,11.124995 -6.875,3.749998 -14.83333,3.749998 -8.625,0 -15.41666,-4.166665 -6.79167,-4.166665 -10.29166,-11.374995 -3.5,-7.20833 -3.5,-15.249994 z m 8.33333,0.125 q 0,11.041662 5.91666,17.41666 5.95833,6.333331 14.91666,6.333331 9.125,0 15,-6.416664 5.91666,-6.416664 5.91666,-18.208326 0,-7.45833 -2.54167,-12.999995 -2.49999,-5.583331 -7.37499,-8.624996 -4.83333,-3.083332 -10.875,-3.083332 -8.58333,0 -14.79166,5.916664 -6.16666,5.874998 -6.16666,19.666658 z"
           style="font-weight:normal;-inkscape-font-specification:Arial;fill:#3721ff;fill-opacity:1"
           id="path2346" />
        <path
           d="M 502.26624,94.079189 V 49.829208 h 6.75 v 6.70833 q 2.58333,-4.708331 4.75,-6.208331 2.20833,-1.499999 4.83333,-1.499999 3.79166,0 7.70833,2.416666 l -2.58333,6.95833 q -2.75,-1.624999 -5.5,-1.624999 -2.45833,0 -4.41666,1.499999 -1.95834,1.458333 -2.79167,4.083332 -1.25,3.999998 -1.25,8.749996 v 23.166657 z"
           style="font-weight:normal;-inkscape-font-specification:Arial;fill:#3721ff;fill-opacity:1"
           id="path2348" />
        <path
           d="m 529.39123,97.745854 7.29167,1.083333 q 0.45833,3.375003 2.54166,4.916663 2.79167,2.08333 7.625,2.08333 5.20833,0 8.04166,-2.08333 2.83334,-2.08333 3.83333,-5.833329 0.58334,-2.291666 0.54167,-9.624996 -4.91666,5.791664 -12.24999,5.791664 -9.125,0 -14.125,-6.583331 -5,-6.58333 -5,-15.79166 0,-6.33333 2.29167,-11.666661 2.29167,-5.374998 6.625,-8.291664 4.375,-2.916665 10.24999,-2.916665 7.83333,0 12.91666,6.333331 v -5.333331 h 6.91667 v 38.249984 q 0,10.333329 -2.125,14.624998 -2.08333,4.33333 -6.66667,6.83333 -4.54166,2.49999 -11.20832,2.49999 -7.91667,0 -12.79167,-3.58333 -4.87499,-3.54166 -4.70833,-10.708326 z m 6.20833,-26.583322 q 0,8.70833 3.45834,12.708328 3.45833,3.999998 8.66666,3.999998 5.16666,0 8.66666,-3.958331 3.5,-3.999999 3.5,-12.499995 0,-8.124997 -3.625,-12.249995 -3.58333,-4.124998 -8.66666,-4.124998 -5,0 -8.5,4.083331 -3.5,4.041665 -3.5,12.041662 z"
           style="font-weight:normal;-inkscape-font-specification:Arial;fill:#3721ff;fill-opacity:1"
           id="path2350" />
        <path
           d="m 607.09953,88.620858 q -4.16666,3.541665 -8.04166,4.999998 -3.83333,1.458333 -8.25,1.458333 -7.29166,0 -11.20832,-3.541666 -3.91667,-3.583331 -3.91667,-9.124996 0,-3.249998 1.45833,-5.916664 1.5,-2.708332 3.875,-4.333331 2.41667,-1.625 5.41667,-2.458333 2.20833,-0.583333 6.66666,-1.124999 9.08333,-1.083333 13.37499,-2.583333 0.0417,-1.541666 0.0417,-1.958332 0,-4.583331 -2.125,-6.458331 -2.875,-2.541665 -8.54166,-2.541665 -5.29167,0 -7.83333,1.874999 -2.5,1.833332 -3.70833,6.541664 l -7.33333,-1 q 1,-4.708331 3.29166,-7.58333 2.29167,-2.916665 6.625,-4.458331 4.33333,-1.583333 10.04166,-1.583333 5.66667,0 9.20833,1.333333 3.54167,1.333332 5.20833,3.374998 1.66667,1.999999 2.33333,5.083332 0.375,1.916665 0.375,6.916663 v 9.999996 q 0,10.458329 0.45834,13.249995 0.5,2.749998 1.91666,5.291664 h -7.83333 q -1.16666,-2.333332 -1.5,-5.458331 z m -0.625,-16.749993 q -4.08333,1.666666 -12.24999,2.833332 -4.625,0.666667 -6.54166,1.5 -1.91667,0.833333 -2.95834,2.458332 -1.04166,1.583333 -1.04166,3.541665 0,2.999999 2.25,4.999998 2.29166,1.999999 6.66666,1.999999 4.33333,0 7.70833,-1.874999 3.375,-1.916666 4.95833,-5.208331 1.20833,-2.541666 1.20833,-7.499997 z"
           style="font-weight:normal;-inkscape-font-specification:Arial;fill:#3721ff;fill-opacity:1"
           id="path2352" />
        <path
           d="M 625.68286,94.079189 V 49.829208 h 6.75 v 6.291664 q 4.87499,-7.291664 14.08332,-7.291664 4,0 7.33333,1.458333 3.375,1.416666 5.04167,3.749998 1.66666,2.333332 2.33333,5.541664 0.41667,2.083333 0.41667,7.291664 v 27.208322 h -7.5 V 67.162534 q 0,-4.583332 -0.875,-6.833331 -0.875,-2.291666 -3.125,-3.624998 -2.20833,-1.375 -5.20833,-1.375 -4.79166,0 -8.29166,3.041666 -3.45833,3.041665 -3.45833,11.541661 v 24.166657 z"
           style="font-weight:normal;-inkscape-font-specification:Arial;fill:#3721ff;fill-opacity:1"
           id="path2354" />
        <path
           d="m 673.18284,41.620878 v -8.624997 h 7.5 v 8.624997 z m 0,52.458311 V 49.829208 h 7.5 v 44.249981 z"
           style="font-weight:normal;-inkscape-font-specification:Arial;fill:#3721ff;fill-opacity:1"
           id="path2356" />
        <path
           d="m 688.14115,94.079189 v -6.083331 l 28.16666,-32.33332 q -4.79167,0.25 -8.45833,0.25 h -18.04166 v -6.08333 h 36.16665 v 4.958331 l -23.95832,28.083321 -4.625,5.124998 q 5.04166,-0.375 9.45833,-0.375 h 20.45832 v 6.458331 z"
           style="font-weight:normal;-inkscape-font-specification:Arial;fill:#3721ff;fill-opacity:1"
           id="path2358" />
        <path
           d="m 765.0578,79.829195 7.74999,0.958333 q -1.83333,6.791664 -6.79166,10.541662 -4.95833,3.749999 -12.66666,3.749999 -9.70833,0 -15.41666,-5.958331 -5.66667,-5.999998 -5.66667,-16.79166 0,-11.166662 5.75,-17.333326 5.75,-6.166664 14.91666,-6.166664 8.875,0 14.49999,6.041664 5.625,6.041664 5.625,16.999993 0,0.666666 -0.0417,1.999999 h -32.99999 q 0.41667,7.291664 4.125,11.166662 3.70833,3.874999 9.24999,3.874999 4.125,0 7.04167,-2.166666 2.91666,-2.166666 4.625,-6.916664 z M 740.43281,67.7042 h 24.70832 q -0.5,-5.583331 -2.83333,-8.374996 -3.58334,-4.333332 -9.29167,-4.333332 -5.16666,0 -8.70833,3.458332 -3.49999,3.458332 -3.87499,9.249996 z"
           style="font-weight:normal;-inkscape-font-specification:Arial;fill:#3721ff;fill-opacity:1"
           id="path2360" />
        <path
           d="m 784.18279,94.079189 v -8.541663 h 8.54166 v 8.541663 q 0,4.708331 -1.66667,7.583331 -1.66666,2.91666 -5.29166,4.5 l -2.08333,-3.20833 q 2.375,-1.04167 3.5,-3.083337 1.125,-1.999999 1.25,-5.791664 z"
           style="font-weight:normal;-inkscape-font-specification:Arial;fill:#3721ff;fill-opacity:1"
           id="path2362" />
        <path
           d="M 844.59942,94.079189 V 40.204212 h -20.12499 v -7.208331 h 48.41664 v 7.208331 h -20.20832 v 53.874977 z"
           style="font-weight:normal;-inkscape-font-specification:Arial;fill:#3721ff;fill-opacity:1"
           id="path2364" />
        <path
           d="m 899.64107,88.620858 q -4.16667,3.541665 -8.04166,4.999998 -3.83334,1.458333 -8.25,1.458333 -7.29167,0 -11.20833,-3.541666 -3.91667,-3.583331 -3.91667,-9.124996 0,-3.249998 1.45834,-5.916664 1.5,-2.708332 3.875,-4.333331 2.41666,-1.625 5.41666,-2.458333 2.20833,-0.583333 6.66666,-1.124999 9.08333,-1.083333 13.375,-2.583333 0.0417,-1.541666 0.0417,-1.958332 0,-4.583331 -2.125,-6.458331 -2.875,-2.541665 -8.54167,-2.541665 -5.29166,0 -7.83333,1.874999 -2.5,1.833332 -3.70833,6.541664 l -7.33333,-1 q 1,-4.708331 3.29167,-7.58333 2.29166,-2.916665 6.62499,-4.458331 4.33333,-1.583333 10.04167,-1.583333 5.66666,0 9.20833,1.333333 3.54166,1.333332 5.20833,3.374998 1.66666,1.999999 2.33333,5.083332 0.375,1.916665 0.375,6.916663 v 9.999996 q 0,10.458329 0.45833,13.249995 0.5,2.749998 1.91667,5.291664 h -7.83333 q -1.16667,-2.333332 -1.5,-5.458331 z m -0.625,-16.749993 q -4.08333,1.666666 -12.25,2.833332 -4.62499,0.666667 -6.54166,1.5 -1.91667,0.833333 -2.95833,2.458332 -1.04167,1.583333 -1.04167,3.541665 0,2.999999 2.25,4.999998 2.29167,1.999999 6.66666,1.999999 4.33334,0 7.70833,-1.874999 3.375,-1.916666 4.95834,-5.208331 1.20833,-2.541666 1.20833,-7.499997 z"
           style="font-weight:normal;-inkscape-font-specification:Arial;fill:#3721ff;fill-opacity:1"
           id="path2366" />
        <path
           d="m 916.84939,97.745854 7.29167,1.083333 q 0.45833,3.375003 2.54166,4.916663 2.79167,2.08333 7.625,2.08333 5.20833,0 8.04166,-2.08333 2.83334,-2.08333 3.83334,-5.833329 0.58333,-2.291666 0.54166,-9.624996 -4.91666,5.791664 -12.24999,5.791664 -9.125,0 -14.125,-6.583331 -5,-6.58333 -5,-15.79166 0,-6.33333 2.29167,-11.666661 2.29167,-5.374998 6.625,-8.291664 4.375,-2.916665 10.24999,-2.916665 7.83333,0 12.91666,6.333331 v -5.333331 h 6.91667 v 38.249984 q 0,10.333329 -2.125,14.624998 -2.08333,4.33333 -6.66666,6.83333 -4.54167,2.49999 -11.20833,2.49999 -7.91667,0 -12.79166,-3.58333 -4.875,-3.54166 -4.70834,-10.708326 z m 6.20833,-26.583322 q 0,8.70833 3.45834,12.708328 3.45833,3.999998 8.66666,3.999998 5.16666,0 8.66666,-3.958331 3.5,-3.999999 3.5,-12.499995 0,-8.124997 -3.625,-12.249995 -3.58333,-4.124998 -8.66666,-4.124998 -5,0 -8.5,4.083331 -3.5,4.041665 -3.5,12.041662 z"
           style="font-weight:normal;-inkscape-font-specification:Arial;fill:#3721ff;fill-opacity:1"
           id="path2368" />
        <path
           d="m 1018.266,88.620858 q -4.1666,3.541665 -8.0416,4.999998 -3.8334,1.458333 -8.25,1.458333 -7.29169,0 -11.20835,-3.541666 -3.91667,-3.583331 -3.91667,-9.124996 0,-3.249998 1.45834,-5.916664 1.5,-2.708332 3.875,-4.333331 2.41666,-1.625 5.41666,-2.458333 2.20833,-0.583333 6.66662,-1.124999 9.0834,-1.083333 13.375,-2.583333 0.042,-1.541666 0.042,-1.958332 0,-4.583331 -2.125,-6.458331 -2.875,-2.541665 -8.5417,-2.541665 -5.2916,0 -7.83329,1.874999 -2.5,1.833332 -3.70833,6.541664 l -7.33333,-1 q 1,-4.708331 3.29167,-7.58333 2.29166,-2.916665 6.62499,-4.458331 4.33329,-1.583333 10.04169,-1.583333 5.6666,0 9.2083,1.333333 3.5417,1.333332 5.2083,3.374998 1.6667,1.999999 2.3334,5.083332 0.375,1.916665 0.375,6.916663 v 9.999996 q 0,10.458329 0.4583,13.249995 0.5,2.749998 1.9167,5.291664 h -7.8334 q -1.1666,-2.333332 -1.5,-5.458331 z m -0.625,-16.749993 q -4.0833,1.666666 -12.25,2.833332 -4.625,0.666667 -6.54162,1.5 -1.91667,0.833333 -2.95833,2.458332 -1.04167,1.583333 -1.04167,3.541665 0,2.999999 2.25,4.999998 2.29167,1.999999 6.66662,1.999999 4.3334,0 7.7084,-1.874999 3.375,-1.916666 4.9583,-5.208331 1.2083,-2.541666 1.2083,-7.499997 z"
           style="font-weight:normal;-inkscape-font-specification:Arial;fill:#3721ff;fill-opacity:1"
           id="path2370" />
        <path
           d="M 1036.8494,94.079189 V 49.829208 h 6.75 v 6.291664 q 4.875,-7.291664 14.0833,-7.291664 4,0 7.3333,1.458333 3.375,1.416666 5.0417,3.749998 1.6666,2.333332 2.3333,5.541664 0.4167,2.083333 0.4167,7.291664 v 27.208322 h -7.5 V 67.162534 q 0,-4.583332 -0.875,-6.833331 -0.875,-2.291666 -3.125,-3.624998 -2.2083,-1.375 -5.2083,-1.375 -4.7917,0 -8.2917,3.041666 -3.4583,3.041665 -3.4583,11.541661 v 24.166657 z"
           style="font-weight:normal;-inkscape-font-specification:Arial;fill:#3721ff;fill-opacity:1"
           id="path2372" />
        <path
           d="m 1113.016,94.079189 v -5.583331 q -4.2083,6.583331 -12.375,6.583331 -5.2917,0 -9.75,-2.916666 -4.4167,-2.916665 -6.875,-8.124996 -2.4167,-5.249998 -2.4167,-12.041662 0,-6.624997 2.2084,-11.999995 2.2083,-5.416664 6.625,-8.291663 4.4166,-2.874999 9.875,-2.874999 4,0 7.125,1.708333 3.125,1.666666 5.0833,4.374998 V 32.995881 h 7.4583 v 61.083308 z m -23.7083,-22.083324 q 0,8.499996 3.5833,12.708328 3.5833,4.208332 8.4583,4.208332 4.9167,0 8.3334,-3.999999 3.4583,-4.041665 3.4583,-12.291661 0,-9.08333 -3.5,-13.333328 -3.5,-4.249998 -8.625,-4.249998 -5,0 -8.375,4.083331 -3.3333,4.083332 -3.3333,12.874995 z"
           style="font-weight:normal;-inkscape-font-specification:Arial;fill:#3721ff;fill-opacity:1"
           id="path2374" />
        <path
           d="m 1153.6826,74.454197 7.625,-0.666666 q 0.5417,4.583331 2.5,7.541663 2,2.916666 6.1667,4.749998 4.1667,1.791666 9.375,1.791666 4.625,0 8.1667,-1.374999 3.5416,-1.375 5.25,-3.749999 1.75,-2.416665 1.75,-5.249997 0,-2.874999 -1.6667,-4.999998 -1.6667,-2.166666 -5.5,-3.624999 -2.4583,-0.958333 -10.875,-2.958332 -8.4167,-2.041666 -11.7917,-3.833332 -4.375,-2.291665 -6.5416,-5.666664 -2.125,-3.416665 -2.125,-7.624997 0,-4.624998 2.625,-8.624996 2.625,-4.041665 7.6666,-6.124998 5.0417,-2.083332 11.2084,-2.083332 6.7916,0 11.9583,2.208332 5.2083,2.166666 8,6.416664 2.7916,4.249999 3,9.624996 l -7.75,0.583333 q -0.625,-5.791664 -4.25,-8.749996 -3.5833,-2.958332 -10.625,-2.958332 -7.3333,0 -10.7083,2.708332 -3.3334,2.666666 -3.3334,6.458331 0,3.291665 2.375,5.416664 2.3334,2.124999 12.1667,4.374998 9.875,2.208333 13.5417,3.874999 5.3333,2.458332 7.875,6.249997 2.5416,3.749999 2.5416,8.666663 0,4.874998 -2.7916,9.20833 -2.7917,4.291665 -8.0417,6.70833 -5.2083,2.374999 -11.75,2.374999 -8.2917,0 -13.9167,-2.416665 -5.5833,-2.416666 -8.7916,-7.249997 -3.1667,-4.874998 -3.3334,-10.999996 z"
           style="font-weight:normal;-inkscape-font-specification:Arial;fill:#3721ff;fill-opacity:1"
           id="path2376" />
        <path
           d="M 1212.3909,94.079189 V 32.995881 h 7.5 v 21.916658 q 5.25,-6.083331 13.25,-6.083331 4.9167,0 8.5417,1.958332 3.625,1.916666 5.1666,5.333332 1.5834,3.416665 1.5834,9.916662 v 28.041655 h -7.5 V 66.037534 q 0,-5.624998 -2.4583,-8.166663 -2.4167,-2.583332 -6.875,-2.583332 -3.3334,0 -6.2917,1.749999 -2.9167,1.708332 -4.1667,4.666665 -1.25,2.958332 -1.25,8.166663 v 24.208323 z"
           style="font-weight:normal;-inkscape-font-specification:Arial;fill:#3721ff;fill-opacity:1"
           id="path2378" />
        <path
           d="m 1288.7242,88.620858 q -4.1666,3.541665 -8.0416,4.999998 -3.8334,1.458333 -8.25,1.458333 -7.2917,0 -11.2084,-3.541666 -3.9166,-3.583331 -3.9166,-9.124996 0,-3.249998 1.4583,-5.916664 1.5,-2.708332 3.875,-4.333331 2.4167,-1.625 5.4167,-2.458333 2.2083,-0.583333 6.6666,-1.124999 9.0834,-1.083333 13.375,-2.583333 0.042,-1.541666 0.042,-1.958332 0,-4.583331 -2.125,-6.458331 -2.875,-2.541665 -8.5417,-2.541665 -5.2916,0 -7.8333,1.874999 -2.5,1.833332 -3.7083,6.541664 l -7.3334,-1 q 1,-4.708331 3.2917,-7.58333 2.2917,-2.916665 6.625,-4.458331 4.3333,-1.583333 10.0417,-1.583333 5.6666,0 9.2083,1.333333 3.5417,1.333332 5.2083,3.374998 1.6667,1.999999 2.3334,5.083332 0.375,1.916665 0.375,6.916663 v 9.999996 q 0,10.458329 0.4583,13.249995 0.5,2.749998 1.9167,5.291664 h -7.8334 q -1.1666,-2.333332 -1.5,-5.458331 z m -0.625,-16.749993 q -4.0833,1.666666 -12.25,2.833332 -4.625,0.666667 -6.5416,1.5 -1.9167,0.833333 -2.9584,2.458332 -1.0416,1.583333 -1.0416,3.541665 0,2.999999 2.25,4.999998 2.2916,1.999999 6.6666,1.999999 4.3334,0 7.7084,-1.874999 3.375,-1.916666 4.9583,-5.208331 1.2083,-2.541666 1.2083,-7.499997 z"
           style="font-weight:normal;-inkscape-font-specification:Arial;fill:#3721ff;fill-opacity:1"
           id="path2380" />
        <path
           d="M 1307.2242,94.079189 V 49.829208 h 6.75 v 6.70833 q 2.5833,-4.708331 4.75,-6.208331 2.2083,-1.499999 4.8333,-1.499999 3.7917,0 7.7084,2.416666 l -2.5834,6.95833 q -2.75,-1.624999 -5.5,-1.624999 -2.4583,0 -4.4166,1.499999 -1.9584,1.458333 -2.7917,4.083332 -1.25,3.999998 -1.25,8.749996 v 23.166657 z"
           style="font-weight:normal;-inkscape-font-specification:Arial;fill:#3721ff;fill-opacity:1"
           id="path2382" />
        <path
           d="m 1366.0159,79.829195 7.75,0.958333 q -1.8333,6.791664 -6.7917,10.541662 -4.9583,3.749999 -12.6666,3.749999 -9.7084,0 -15.4167,-5.958331 -5.6667,-5.999998 -5.6667,-16.79166 0,-11.166662 5.75,-17.333326 5.75,-6.166664 14.9167,-6.166664 8.875,0 14.5,6.041664 5.625,6.041664 5.625,16.999993 0,0.666666 -0.042,1.999999 h -33 q 0.4167,7.291664 4.125,11.166662 3.7084,3.874999 9.25,3.874999 4.125,0 7.0417,-2.166666 2.9167,-2.166666 4.625,-6.916664 z M 1341.3909,67.7042 h 24.7083 q -0.5,-5.583331 -2.8333,-8.374996 -3.5833,-4.333332 -9.2917,-4.333332 -5.1666,0 -8.7083,3.458332 -3.5,3.458332 -3.875,9.249996 z"
           style="font-weight:normal;-inkscape-font-specification:Arial;fill:#3721ff;fill-opacity:1"
           id="path2384" />
        <path
           d="m 454.14127,200.74582 v -25.87499 l -23.54166,-35.20832 h 9.83333 l 12.04166,18.41666 q 3.33333,5.16666 6.20833,10.33333 2.75,-4.79167 6.66666,-10.79167 l 11.83333,-17.95832 h 9.41667 l -24.37499,35.20832 v 25.87499 z"
           style="font-weight:normal;-inkscape-font-specification:Arial;fill:#3721ff;fill-opacity:1"
           id="path2386" />
        <path
           d="m 482.26625,178.62082 q 0,-12.29166 6.83333,-18.20832 5.70834,-4.91667 13.91667,-4.91667 9.12499,0 14.91666,6 5.79166,5.95833 5.79166,16.49999 0,8.54167 -2.58333,13.45833 -2.54167,4.875 -7.45833,7.58333 -4.875,2.70833 -10.66666,2.70833 -9.29167,0 -15.04166,-5.95833 -5.70834,-5.95833 -5.70834,-17.16666 z m 7.70833,0 q 0,8.5 3.70834,12.75 3.70833,4.20833 9.33333,4.20833 5.58333,0 9.29166,-4.25 3.70833,-4.25 3.70833,-12.95833 0,-8.20833 -3.75,-12.41666 -3.70833,-4.25 -9.24999,-4.25 -5.625,0 -9.33333,4.20834 -3.70834,4.20833 -3.70834,12.70832 z"
           style="font-weight:normal;-inkscape-font-specification:Arial;fill:#3721ff;fill-opacity:1"
           id="path2388" />
        <path
           d="m 561.51622,200.74582 v -6.5 q -5.16666,7.49999 -14.04166,7.49999 -3.91666,0 -7.33333,-1.49999 -3.375,-1.5 -5.04166,-3.75 -1.625,-2.29167 -2.29167,-5.58333 -0.45833,-2.20834 -0.45833,-7 v -27.41666 h 7.49999 v 24.54166 q 0,5.875 0.45834,7.91666 0.70833,2.95834 3,4.66667 2.29166,1.66666 5.66666,1.66666 3.375,0 6.33333,-1.70833 2.95833,-1.75 4.16667,-4.70833 1.24999,-3 1.24999,-8.66666 v -23.70833 h 7.5 v 44.24999 z"
           style="font-weight:normal;-inkscape-font-specification:Arial;fill:#3721ff;fill-opacity:1"
           id="path2390" />
        <path
           d="m 579.89121,200.74582 v -44.24999 h 6.75 v 6.70833 q 2.58333,-4.70833 4.75,-6.20833 2.20833,-1.5 4.83333,-1.5 3.79166,0 7.70833,2.41667 l -2.58333,6.95833 q -2.75,-1.625 -5.5,-1.625 -2.45833,0 -4.41667,1.5 -1.95833,1.45833 -2.79166,4.08333 -1.25,4 -1.25,8.75 v 23.16666 z"
           style="font-weight:normal;-inkscape-font-specification:Arial;fill:#3721ff;fill-opacity:1"
           id="path2392" />
        <path
           d="m 632.80785,200.74582 v -61.08331 h 12.16666 l 14.45833,43.24998 q 2,6.04166 2.91666,9.04166 1.04167,-3.33333 3.25,-9.79166 l 14.625,-42.49998 h 10.87499 v 61.08331 h -7.79166 v -51.12498 l -17.75,51.12498 h -7.29166 l -17.66666,-51.99998 v 51.99998 z"
           style="font-weight:normal;-inkscape-font-specification:Arial;fill:#3721ff;fill-opacity:1"
           id="path2394" />
        <path
           d="m 700.39116,178.62082 q 0,-12.29166 6.83333,-18.20832 5.70833,-4.91667 13.91666,-4.91667 9.125,0 14.91666,6 5.79167,5.95833 5.79167,16.49999 0,8.54167 -2.58333,13.45833 -2.54167,4.875 -7.45833,7.58333 -4.875,2.70833 -10.66667,2.70833 -9.29166,0 -15.04166,-5.95833 -5.70833,-5.95833 -5.70833,-17.16666 z m 7.70833,0 q 0,8.5 3.70833,12.75 3.70834,4.20833 9.33333,4.20833 5.58334,0 9.29167,-4.25 3.70833,-4.25 3.70833,-12.95833 0,-8.20833 -3.75,-12.41666 -3.70833,-4.25 -9.25,-4.25 -5.62499,0 -9.33333,4.20834 -3.70833,4.20833 -3.70833,12.70832 z"
           style="font-weight:normal;-inkscape-font-specification:Arial;fill:#3721ff;fill-opacity:1"
           id="path2396" />
        <path
           d="m 747.84948,178.62082 q 0,-12.29166 6.83333,-18.20832 5.70833,-4.91667 13.91666,-4.91667 9.12499,0 14.91666,6 5.79166,5.95833 5.79166,16.49999 0,8.54167 -2.58333,13.45833 -2.54167,4.875 -7.45833,7.58333 -4.875,2.70833 -10.66666,2.70833 -9.29167,0 -15.04166,-5.95833 -5.70833,-5.95833 -5.70833,-17.16666 z m 7.70833,0 q 0,8.5 3.70833,12.75 3.70833,4.20833 9.33333,4.20833 5.58333,0 9.29166,-4.25 3.70833,-4.25 3.70833,-12.95833 0,-8.20833 -3.75,-12.41666 -3.70833,-4.25 -9.24999,-4.25 -5.625,0 -9.33333,4.20834 -3.70833,4.20833 -3.70833,12.70832 z"
           style="font-weight:normal;-inkscape-font-specification:Arial;fill:#3721ff;fill-opacity:1"
           id="path2398" />
        <path
           d="m 826.80778,200.74582 v -5.58334 q -4.20834,6.58333 -12.375,6.58333 -5.29166,0 -9.74999,-2.91666 -4.41667,-2.91667 -6.875,-8.125 -2.41667,-5.25 -2.41667,-12.04166 0,-6.625 2.20833,-11.99999 2.20834,-5.41667 6.625,-8.29167 4.41667,-2.875 9.875,-2.875 4,0 7.12499,1.70834 3.125,1.66666 5.08334,4.37499 v -21.91665 h 7.45833 v 61.08331 z m -23.70833,-22.08333 q 0,8.5 3.58333,12.70833 3.58334,4.20833 8.45833,4.20833 4.91667,0 8.33333,-4 3.45834,-4.04166 3.45834,-12.29166 0,-9.08333 -3.5,-13.33333 -3.5,-4.25 -8.625,-4.25 -5,0 -8.375,4.08334 -3.33333,4.08333 -3.33333,12.87499 z"
           style="font-weight:normal;-inkscape-font-specification:Arial;fill:#3721ff;fill-opacity:1"
           id="path2400" />
        <path
           d="m 845.3911,200.74582 v -61.08331 h 7.5 v 61.08331 z"
           style="font-weight:normal;-inkscape-font-specification:Arial;fill:#3721ff;fill-opacity:1"
           id="path2402" />
        <path
           d="m 894.80773,186.49582 7.75,0.95833 q -1.83333,6.79167 -6.79166,10.54167 -4.95833,3.74999 -12.66666,3.74999 -9.70833,0 -15.41666,-5.95833 -5.66667,-5.99999 -5.66667,-16.79166 0,-11.16666 5.75,-17.33332 5.75,-6.16667 14.91666,-6.16667 8.875,0 14.49999,6.04167 5.625,6.04166 5.625,16.99999 0,0.66667 -0.0417,2 h -32.99998 q 0.41666,7.29166 4.125,11.16666 3.70833,3.875 9.24999,3.875 4.125,0 7.04167,-2.16667 2.91666,-2.16666 4.62499,-6.91666 z m -24.62499,-12.12499 h 24.70833 q -0.5,-5.58333 -2.83333,-8.375 -3.58334,-4.33333 -9.29167,-4.33333 -5.16666,0 -8.70833,3.45833 -3.5,3.45833 -3.875,9.25 z"
           style="font-weight:normal;-inkscape-font-specification:Arial;fill:#3721ff;fill-opacity:1"
           id="path2404" />
        <path
           d="m 982.93272,194.20415 q 5.62499,3.875 10.37499,5.66667 l -2.375,5.62499 q -6.58333,-2.375 -13.12499,-7.49999 -6.79166,3.79166 -14.99999,3.79166 -8.29167,0 -15.04166,-4 -6.75,-4 -10.41667,-11.24999 -3.625,-7.25 -3.625,-16.33333 0,-9.04166 3.66667,-16.45833 3.66666,-7.41666 10.41666,-11.29166 6.79167,-3.875 15.16666,-3.875 8.45833,0 15.25,4.04167 6.79166,4 10.33332,11.24999 3.58334,7.20833 3.58334,16.29166 0,7.54167 -2.29167,13.58333 -2.29166,6 -6.91666,10.45833 z m -17.79166,-10.33333 q 7,1.95833 11.54166,5.83333 7.125,-6.49999 7.125,-19.54166 0,-7.41666 -2.54167,-12.95832 -2.5,-5.54167 -7.375,-8.58333 -4.83333,-3.08334 -10.87499,-3.08334 -9.04166,0 -14.99999,6.20834 -5.95834,6.16666 -5.95834,18.45832 0,11.91666 5.875,18.29166 5.91667,6.375 15.08333,6.375 4.33333,0 8.16666,-1.625 -3.79166,-2.45833 -7.99999,-3.5 z"
           style="font-weight:normal;-inkscape-font-specification:Arial;fill:#3721ff;fill-opacity:1"
           id="path2406" />
        <path
           d="m 1031.0577,200.74582 v -6.5 q -5.1667,7.49999 -14.0417,7.49999 -3.9167,0 -7.3333,-1.49999 -3.375,-1.5 -5.0417,-3.75 -1.625,-2.29167 -2.2917,-5.58333 -0.4583,-2.20834 -0.4583,-7 v -27.41666 h 7.5 v 24.54166 q 0,5.875 0.4583,7.91666 0.7084,2.95834 3,4.66667 2.2917,1.66666 5.6667,1.66666 3.375,0 6.3333,-1.70833 2.9584,-1.75 4.1667,-4.70833 1.25,-3 1.25,-8.66666 v -23.70833 h 7.5 v 44.24999 z"
           style="font-weight:normal;-inkscape-font-specification:Arial;fill:#3721ff;fill-opacity:1"
           id="path2408" />
        <path
           d="m 1079.8076,186.49582 7.75,0.95833 q -1.8333,6.79167 -6.7916,10.54167 -4.9584,3.74999 -12.6667,3.74999 -9.7083,0 -15.4166,-5.95833 -5.6667,-5.99999 -5.6667,-16.79166 0,-11.16666 5.75,-17.33332 5.75,-6.16667 14.9166,-6.16667 8.875,0 14.5,6.04167 5.625,6.04166 5.625,16.99999 0,0.66667 -0.042,2 h -33 q 0.4167,7.29166 4.125,11.16666 3.7083,3.875 9.25,3.875 4.125,0 7.0416,-2.16667 2.9167,-2.16666 4.625,-6.91666 z m -24.6249,-12.12499 h 24.7083 q -0.5,-5.58333 -2.8334,-8.375 -3.5833,-4.33333 -9.2916,-4.33333 -5.1667,0 -8.7083,3.45833 -3.5,3.45833 -3.875,9.25 z"
           style="font-weight:normal;-inkscape-font-specification:Arial;fill:#3721ff;fill-opacity:1"
           id="path2410" />
        <path
           d="m 1093.9743,187.53749 7.4167,-1.16667 q 0.625,4.45833 3.4583,6.83333 2.875,2.375 8,2.375 5.1667,0 7.6667,-2.08333 2.5,-2.125 2.5,-4.95833 0,-2.54167 -2.2084,-4 -1.5416,-1 -7.6666,-2.54167 -8.25,-2.08333 -11.4584,-3.58333 -3.1666,-1.54166 -4.8333,-4.20833 -1.625,-2.70833 -1.625,-5.95833 0,-2.95833 1.3333,-5.45833 1.375,-2.54167 3.7084,-4.20833 1.75,-1.29167 4.75,-2.16667 3.0416,-0.91667 6.5,-0.91667 5.2083,0 9.125,1.5 3.9583,1.5 5.8333,4.08333 1.875,2.54167 2.5833,6.83334 l -7.3333,0.99999 q -0.5,-3.41666 -2.9167,-5.33333 -2.375,-1.91666 -6.75,-1.91666 -5.1666,0 -7.375,1.70833 -2.2083,1.70833 -2.2083,4 0,1.45833 0.9167,2.625 0.9166,1.20833 2.875,2 1.125,0.41666 6.625,1.91666 7.9583,2.125 11.0833,3.5 3.1667,1.33333 4.9583,3.91667 1.7917,2.58333 1.7917,6.41666 0,3.75 -2.2083,7.08333 -2.1667,3.29167 -6.2917,5.125 -4.125,1.79166 -9.3333,1.79166 -8.625,0 -13.1667,-3.58333 -4.5,-3.58333 -5.75,-10.62499 z"
           style="font-weight:normal;-inkscape-font-specification:Arial;fill:#3721ff;fill-opacity:1"
           id="path2412" />
        <path
           d="m 1156.016,194.03748 1.0833,6.625 q -3.1667,0.66667 -5.6666,0.66667 -4.0834,0 -6.3334,-1.29167 -2.25,-1.29166 -3.1666,-3.375 -0.9167,-2.125 -0.9167,-8.87499 v -25.45833 h -5.5 v -5.83333 h 5.5 V 145.5375 l 7.4583,-4.49999 v 15.45832 h 7.5417 v 5.83333 h -7.5417 v 25.87499 q 0,3.20834 0.375,4.125 0.4167,0.91667 1.2917,1.45833 0.9167,0.54167 2.5833,0.54167 1.25,0 3.2917,-0.29167 z"
           style="font-weight:normal;-inkscape-font-specification:Arial;fill:#3721ff;fill-opacity:1"
           id="path2414" />
        <path
           d="m 1163.391,148.2875 v -8.62499 h 7.5 v 8.62499 z m 0,52.45832 v -44.24999 h 7.5 v 44.24999 z"
           style="font-weight:normal;-inkscape-font-specification:Arial;fill:#3721ff;fill-opacity:1"
           id="path2416" />
        <path
           d="m 1179.5159,178.62082 q 0,-12.29166 6.8334,-18.20832 5.7083,-4.91667 13.9166,-4.91667 9.125,0 14.9167,6 5.7917,5.95833 5.7917,16.49999 0,8.54167 -2.5834,13.45833 -2.5416,4.875 -7.4583,7.58333 -4.875,2.70833 -10.6667,2.70833 -9.2916,0 -15.0416,-5.95833 -5.7084,-5.95833 -5.7084,-17.16666 z m 7.7084,0 q 0,8.5 3.7083,12.75 3.7083,4.20833 9.3333,4.20833 5.5834,0 9.2917,-4.25 3.7083,-4.25 3.7083,-12.95833 0,-8.20833 -3.75,-12.41666 -3.7083,-4.25 -9.25,-4.25 -5.625,0 -9.3333,4.20834 -3.7083,4.20833 -3.7083,12.70832 z"
           style="font-weight:normal;-inkscape-font-specification:Arial;fill:#3721ff;fill-opacity:1"
           id="path2418" />
        <path
           d="m 1229.7659,200.74582 v -44.24999 h 6.75 v 6.29167 q 4.875,-7.29167 14.0834,-7.29167 4,0 7.3333,1.45834 3.375,1.41666 5.0416,3.75 1.6667,2.33333 2.3334,5.54166 0.4166,2.08333 0.4166,7.29166 v 27.20833 h -7.5 v -26.91666 q 0,-4.58333 -0.875,-6.83333 -0.8749,-2.29167 -3.1249,-3.625 -2.2084,-1.375 -5.2084,-1.375 -4.7916,0 -8.2916,3.04167 -3.4584,3.04166 -3.4584,11.54166 v 24.16666 z"
           style="font-weight:normal;-inkscape-font-specification:Arial;fill:#3721ff;fill-opacity:1"
           id="path2420" />
        <path
           d="m 1274.2242,187.53749 7.4167,-1.16667 q 0.625,4.45833 3.4583,6.83333 2.875,2.375 8,2.375 5.1667,0 7.6667,-2.08333 2.5,-2.125 2.5,-4.95833 0,-2.54167 -2.2083,-4 -1.5417,-1 -7.6667,-2.54167 -8.25,-2.08333 -11.4583,-3.58333 -3.1667,-1.54166 -4.8334,-4.20833 -1.625,-2.70833 -1.625,-5.95833 0,-2.95833 1.3334,-5.45833 1.375,-2.54167 3.7083,-4.20833 1.75,-1.29167 4.75,-2.16667 3.0417,-0.91667 6.5,-0.91667 5.2083,0 9.125,1.5 3.9583,1.5 5.8333,4.08333 1.875,2.54167 2.5834,6.83334 l -7.3334,0.99999 q -0.5,-3.41666 -2.9166,-5.33333 -2.375,-1.91666 -6.75,-1.91666 -5.1667,0 -7.375,1.70833 -2.2084,1.70833 -2.2084,4 0,1.45833 0.9167,2.625 0.9167,1.20833 2.875,2 1.125,0.41666 6.625,1.91666 7.9583,2.125 11.0833,3.5 3.1667,1.33333 4.9584,3.91667 1.7916,2.58333 1.7916,6.41666 0,3.75 -2.2083,7.08333 -2.1667,3.29167 -6.2917,5.125 -4.125,1.79166 -9.3333,1.79166 -8.625,0 -13.1667,-3.58333 -4.5,-3.58333 -5.75,-10.62499 z"
           style="font-weight:normal;-inkscape-font-specification:Arial;fill:#3721ff;fill-opacity:1"
           id="path2422" />
      </g>
    </g>
    <g
       id="g654"
       transform="translate(-62.548531,-142.74779)">
      <rect
         style="opacity:0.839431;fill:url(#linearGradient987);fill-opacity:1;stroke-width:5.00041"
         id="rect294"
         width="90"
         height="90"
         x="67.548531"
         y="147.74779"
         ry="11.700509" />
      <g
         id="g1484"
         transform="matrix(0.83045356,0,0,0.83045356,69.788584,151.32344)">
        <g
           aria-label="L"
           transform="matrix(0.71515416,0,0,0.54482646,0.3262258,-8.7721527)"
           id="text1255"
           style="font-weight:bold;font-size:192px;font-family:Arial;-inkscape-font-specification:'Arial Bold';white-space:pre;shape-inside:url(#rect1257);opacity:0.839431;fill:#ffffff;stroke-width:20.9991">
          <path
             d="M 18.216947,177.88737 V 37.689834 H 35.248461 V 157.64504 h 84.158089 v 20.24233 z"
             id="path1267"
             sodipodi:nodetypes="ccccccc" />
        </g>
        <g
           aria-label="Q"
           transform="matrix(0.38494448,0,0,0.38494448,-54.257626,-41.754708)"
           id="text1261"
           style="font-weight:bold;font-size:192px;font-family:Arial;-inkscape-font-specification:'Arial Bold';white-space:pre;shape-inside:url(#rect1263);opacity:0.839431;fill:#ffffff;stroke-width:20.9991">
          <path
             d="m 351.55781,260.99309 c 6.8125,4.875 14.21875,8.75 22.21875,11.625 l -10.21875,19.59375 c -4.1875,-1.25 -8.28125,-2.96875 -12.28125,-5.15625 -0.875,-0.4375 -7.03125,-4.5 -18.46875,-12.1875 -9,3.9375 -18.96875,5.90625 -29.90625,5.90625 -21.125,0 -37.6875,-6.21875 -49.6875,-18.65625 -11.9375,-12.4375 -17.90625,-29.90625 -17.90625,-52.40625 0,-22.4375 6,-39.875 18,-52.3125 12,-12.5 28.28125,-18.75 48.84375,-18.75 20.375,0 36.53125,6.25 48.46875,18.75 11.9375,12.4375 17.90625,29.875 17.90625,52.3125 0,11.875 -1.65625,22.3125 -4.96875,31.3125 -2.5,6.875 -6.5,13.53125 -12,19.96875 z m -22.3125,-15.65625 c 3.5625,-4.1875 6.21875,-9.25 7.96875,-15.1875 1.8125,-5.9375 2.71875,-12.75 2.71875,-20.4375 0,-15.875 -3.5,-27.71875 -10.5,-35.53125 -7,-7.875 -16.15625,-11.8125 -27.46875,-11.8125 -11.3125,0 -20.5,3.9375 -27.5625,11.8125 -7,7.875 -10.5,19.71875 -10.5,35.53125 0,16.0625 3.5,28.09375 10.5,36.09375 7.0625,7.9375 15.96875,11.90625 26.71875,11.90625 4,0 7.78125,-0.65625 11.34375,-1.96875 -5.625,-3.6875 -11.34375,-6.5625 -17.15625,-8.625 l 7.78125,-15.84375 c 9.125,3.125 17.84375,7.8125 26.15625,14.0625 z"
             id="path1270"
             sodipodi:nodetypes="cccccscscscsccccscscscscccc" />
        </g>
      </g>
    </g>
  </g>
</svg>
