<?xml version="1.0" encoding="UTF-8" standalone="no"?>
<svg
   viewBox="0 0 448 512"
   version="1.1"
   id="svg134"
   sodipodi:docname="bars-solid.svg"
   inkscape:version="1.2.1 (9c6d41e, 2022-07-14)"
   xmlns:inkscape="http://www.inkscape.org/namespaces/inkscape"
   xmlns:sodipodi="http://sodipodi.sourceforge.net/DTD/sodipodi-0.dtd"
   xmlns="http://www.w3.org/2000/svg"
   xmlns:svg="http://www.w3.org/2000/svg">
   <defs
      id="defs138" />
   <sodipodi:namedview
      id="namedview136"
      pagecolor="#ffffff"
      bordercolor="#000000"
      borderopacity="0.25"
      inkscape:showpageshadow="2"
      inkscape:pageopacity="0.0"
      inkscape:pagecheckerboard="0"
      inkscape:deskcolor="#d1d1d1"
      showgrid="false"
      inkscape:zoom="0.4609375"
      inkscape:cx="-142.10169"
      inkscape:cy="256"
      inkscape:window-width="1309"
      inkscape:window-height="430"
      inkscape:window-x="0"
      inkscape:window-y="37"
      inkscape:window-maximized="0"
      inkscape:current-layer="svg134" />
   <!--!Font
   Awesome Free 6.6.0 by @fontawesome - https://fontawesome.com License -
   https://fontawesome.com/license/free Copyright 2024 Fonticons, Inc.-->
   <path
      fill="white"
      d="M0 96C0 78.3 14.3 64 32 64l384 0c17.7 0 32 14.3 32 32s-14.3 32-32 32L32 128C14.3 128 0 113.7 0 96zM0 256c0-17.7 14.3-32 32-32l384 0c17.7 0 32 14.3 32 32s-14.3 32-32 32L32 288c-17.7 0-32-14.3-32-32zM448 416c0 17.7-14.3 32-32 32L32 448c-17.7 0-32-14.3-32-32s14.3-32 32-32l384 0c17.7 0 32 14.3 32 32z"
      id="path132"
      style="fill:#ffffff" />
</svg>