<?xml version="1.0" encoding="UTF-8" standalone="no"?>
<!-- Created with Inkscape (http://www.inkscape.org/) -->

<svg
   width="450mm"
   height="100mm"
   viewBox="0 0 450 100"
   version="1.1"
   id="svg5"
   inkscape:version="1.2.1 (9c6d41e, 2022-07-14)"
   sodipodi:docname="logo-large.svg"
   xmlns:inkscape="http://www.inkscape.org/namespaces/inkscape"
   xmlns:sodipodi="http://sodipodi.sourceforge.net/DTD/sodipodi-0.dtd"
   xmlns="http://www.w3.org/2000/svg"
   xmlns:svg="http://www.w3.org/2000/svg">
  <sodipodi:namedview
     id="namedview7"
     pagecolor="#ffffff"
     bordercolor="#000000"
     borderopacity="0.25"
     inkscape:showpageshadow="2"
     inkscape:pageopacity="0.0"
     inkscape:pagecheckerboard="0"
     inkscape:deskcolor="#d1d1d1"
     inkscape:document-units="mm"
     showgrid="false"
     inkscape:zoom="0.8937669"
     inkscape:cx="772.57281"
     inkscape:cy="430.20166"
     inkscape:window-width="2880"
     inkscape:window-height="1523"
     inkscape:window-x="0"
     inkscape:window-y="25"
     inkscape:window-maximized="1"
     inkscape:current-layer="layer1" />
  <defs
     id="defs2">
    <rect
       x="458.73259"
       y="20.139479"
       width="1183.7538"
       height="371.46151"
       id="rect4383" />
    <rect
       x="15.850272"
       y="9.5101633"
       width="289.10895"
       height="214.92969"
       id="rect242" />
    <rect
       x="-7.6081309"
       y="28.530491"
       width="386.74664"
       height="255.50639"
       id="rect236" />
    <rect
       x="15.850272"
       y="9.5101633"
       width="289.10895"
       height="214.92969"
       id="rect564" />
  </defs>
  <g
     inkscape:label="Layer 1"
     inkscape:groupmode="layer"
     id="layer1">
    <g
       aria-label="L"
       transform="matrix(0.75305496,0,0,0.75305496,-0.3565004,-0.5442044)"
       id="text240"
       style="font-size:96px;font-family:AppleGothic;-inkscape-font-specification:AppleGothic;white-space:pre;shape-inside:url(#rect242);fill:#445500;stroke-width:20.9991">
      <path
         d="m 20.841609,16.587871 h 7.584 v 68.64 h 37.152 v 6.624 h -44.736 z"
         id="path1226"
         style="fill:#445500" />
    </g>
    <g
       aria-label="Q"
       transform="matrix(0.80899759,0,0,0.80899759,26.704873,8.9570085)"
       id="text562"
       style="font-size:96px;font-family:AppleGothic;-inkscape-font-specification:AppleGothic;white-space:pre;shape-inside:url(#rect564);fill:#000080;stroke-width:20.9991">
      <path
         d="m 55.689609,67.659871 8.832,14.784 q 6.624,-4.608 10.272,-11.904 3.648,-7.392 3.648,-16.128 0,-13.056 -7.488,-22.464 -3.744,-4.704 -8.16,-7.104 -4.416,-2.4 -9.792,-2.4 -10.368,0 -17.856,9.504 -7.296,9.312 -7.296,22.944 0,13.824 7.968,22.944 7.008,8.16 16.512,8.16 1.44,0 2.4,-0.096 1.056,-0.096 2.784,-0.576 l -10.368,-17.664 z m 9.792,31.68 -4.224,-7.488 q -3.36,0.768 -5.28,0.96 -1.824,0.288 -3.264,0.288 -13.056,0 -22.368,-9.888 -10.56,-11.04 -10.56,-28.704 0,-16.704 9.792,-27.936 9.792,-11.232 23.712,-11.232 13.248,0 23.04,10.464 10.56,11.232 10.56,28.608 0,11.616 -4.512,20.064 -4.512,8.448 -14.112,14.208 l 5.952,10.56 z"
         id="path1229"
         style="fill:#445500" />
    </g>
    <text
       xml:space="preserve"
       transform="matrix(0.17996638,0,0,0.17996638,43.484464,26.123361)"
       id="text4381"
       style="font-size:96px;font-family:AppleGothic;-inkscape-font-specification:AppleGothic;text-align:start;white-space:pre;shape-inside:url(#rect4383);display:inline;fill:#333333;fill-opacity:1;stroke-width:20.9991"><tspan
         x="458.73242"
         y="102.48078"
         id="tspan6653">Organize, tag and share
</tspan><tspan
         x="458.73242"
         y="222.48078"
         id="tspan6655">your Moodle questions</tspan></text>
  </g>
</svg>
